<svg xmlns="http://www.w3.org/2000/svg" width="32" height="32" style="shape-rendering:geometricPrecision;text-rendering:geometricPrecision;image-rendering:optimizeQuality;fill-rule:evenodd;clip-rule:evenodd"><path fill="#2c2d41" d="M6.5-.5h3c2.45 3.986 5.784 6.486 10 7.5 3.091-4.816 5.258-4.65 6.5.5-2.048.598-3.215 1.931-3.5 4 1.903 3.411 4.403 6.411 7.5 9 .667 1 .667 2 0 3A252.078 252.078 0 0 0 17.5 26l7 1c1.537 1.11 2.203 2.61 2 4.5H.5c-.262-1.478.071-2.811 1-4a19.374 19.374 0 0 1 8-1c.617-3.995-.55-7.328-3.5-10A91.745 91.745 0 0 1 4.5 10c.989-3.721 1.655-7.221 2-10.5Zm1 5a443.227 443.227 0 0 1 18 17.5c-2.514 1.253-5.18 1.753-8 1.5.322-2.222-.345-4.056-2-5.5a269.55 269.55 0 0 0-6.5-.5c-2.528-4.127-3.028-8.46-1.5-13Zm8 18c-.12 1.086-.787 1.753-2 2-.916-.043-1.583-.376-2-1 1.459.067 2.792-.266 4-1Zm-13 6c7.508-.462 14.842.038 22 1.5l-11 .5c-4.065-.011-7.732-.678-11-2Z" style="opacity:.624"/><path fill="#4b5ae7" d="M15.5 22.5c-1.208.734-2.541 1.067-4 1v-4c2.473-.412 3.806.588 4 3Z" style="opacity:.54"/></svg>