<?xml version="1.0" encoding="UTF-8"?>
<!DOCTYPE svg PUBLIC "-//W3C//DTD SVG 1.1//EN" "http://www.w3.org/Graphics/SVG/1.1/DTD/svg11.dtd">
<svg xmlns="http://www.w3.org/2000/svg" version="1.1" width="32px" height="32px" style="shape-rendering:geometricPrecision; text-rendering:geometricPrecision; image-rendering:optimizeQuality; fill-rule:evenodd; clip-rule:evenodd" xmlns:xlink="http://www.w3.org/1999/xlink">
<g><path style="opacity:0.624" fill="#2b2c40" d="M -0.5,25.5 C -0.5,24.5 -0.5,23.5 -0.5,22.5C 4.19541,19.9749 4.19541,18.6415 -0.5,18.5C -0.5,17.1667 -0.5,15.8333 -0.5,14.5C 2.00598,13.2504 4.67264,12.5838 7.5,12.5C 7.56745,11.0413 7.23411,9.70792 6.5,8.5C 6.5,8.16667 6.5,7.83333 6.5,7.5C 8.43786,2.53042 12.1045,0.697091 17.5,2C 21.0496,4.54643 22.3829,8.04643 21.5,12.5C 23.3588,12.4609 24.6921,13.2942 25.5,15C 23.209,18.7188 19.8757,20.3855 15.5,20C 12.8333,23 10.1667,26 7.5,29C 5.86586,29.4935 4.19919,29.6602 2.5,29.5C 2.53235,27.3812 1.53235,26.0478 -0.5,25.5 Z M 12.5,3.5 C 13.2389,3.36899 13.9056,3.53566 14.5,4C 12.7964,6.23746 11.7964,8.73746 11.5,11.5C 13.604,11.2011 15.604,11.5344 17.5,12.5C 13.4754,14.8447 10.4754,13.6781 8.5,9C 9.0359,6.49207 10.3692,4.65874 12.5,3.5 Z M 15.5,5.5 C 17.4759,6.42714 17.8092,7.76047 16.5,9.5C 15.5713,8.31116 15.238,6.97782 15.5,5.5 Z M 12.5,17.5 C 13.9464,16.3871 15.6131,16.2204 17.5,17C 15.701,18.0363 14.0343,18.2029 12.5,17.5 Z"/></g>
<g><path style="opacity:0.71" fill="#4c58e6" d="M 31.5,3.5 C 31.5,4.16667 31.5,4.83333 31.5,5.5C 30.596,6.20895 30.2627,7.20895 30.5,8.5C 28.5,8.5 26.5,8.5 24.5,8.5C 24.5792,7.06953 24.2458,5.73619 23.5,4.5C 25,3.5 26.5,2.5 28,1.5C 29.0769,2.42949 30.2436,3.09616 31.5,3.5 Z"/></g>
<g><path style="opacity:0.526" fill="#4b58e6" d="M 6.5,7.5 C 6.5,7.83333 6.5,8.16667 6.5,8.5C 4.77045,9.97569 3.43711,9.64235 2.5,7.5C 3.87304,4.85982 5.20637,4.85982 6.5,7.5 Z"/></g>
<g><path style="opacity:0.486" fill="#4a58e7" d="M 24.5,19.5 C 27.8606,20.2032 28.1939,21.5365 25.5,23.5C 23.3576,22.5629 23.0243,21.2296 24.5,19.5 Z"/></g>
<g><path style="opacity:0.555" fill="#4c58e8" d="M 13.5,23.5 C 18.0122,24.2801 18.3455,25.6135 14.5,27.5C 12.3576,26.5629 12.0243,25.2296 13.5,23.5 Z"/></g>
<g><path style="opacity:0.301" fill="#4b5ae4" d="M 20.5,25.5 C 23.8606,26.2032 24.1939,27.5365 21.5,29.5C 19.3576,28.5629 19.0243,27.2296 20.5,25.5 Z"/></g>
</svg>
