<?xml version="1.0" encoding="UTF-8"?>
<!DOCTYPE svg PUBLIC "-//W3C//DTD SVG 1.1//EN" "http://www.w3.org/Graphics/SVG/1.1/DTD/svg11.dtd">
<svg xmlns="http://www.w3.org/2000/svg" version="1.1" width="32px" height="32px" style="shape-rendering:geometricPrecision; text-rendering:geometricPrecision; image-rendering:optimizeQuality; fill-rule:evenodd; clip-rule:evenodd" xmlns:xlink="http://www.w3.org/1999/xlink">
<g><path style="opacity:0.664" fill="#2c2d40" d="M 10.5,-0.5 C 13.8333,-0.5 17.1667,-0.5 20.5,-0.5C 25.9919,2.32241 29.6585,6.65575 31.5,12.5C 31.5,14.1667 31.5,15.8333 31.5,17.5C 30.1274,22.2221 27.294,25.8888 23,28.5C 22.5172,29.448 22.3505,30.448 22.5,31.5C 20.8333,31.5 19.1667,31.5 17.5,31.5C 16.7222,30.8444 16.0556,30.0111 15.5,29C 16.9782,27.5218 18.4782,26.0218 20,24.5C 21.2289,26.9468 22.7289,27.1135 24.5,25C 27.076,22.349 28.4093,19.1823 28.5,15.5C 29.8333,15.1667 29.8333,14.8333 28.5,14.5C 28.5,14.1667 28.5,13.8333 28.5,13.5C 27.5,6.5 23.5,2.5 16.5,1.5C 15.8333,1.5 15.1667,1.5 14.5,1.5C 7.45797,2.54193 3.45797,6.54193 2.5,13.5C 1.88785,19.4927 4.38785,24.1594 10,27.5C 11.3975,23.7448 12.5642,19.9115 13.5,16C 12.432,13.1228 10.7654,10.6228 8.5,8.5C 9.00161,7.47899 9.66828,7.31232 10.5,8C 12.3734,10.2089 14.54,12.0422 17,13.5C 15.2195,18.6042 13.7195,23.9375 12.5,29.5C 10.3453,29.628 8.34528,29.128 6.5,28C 3.53498,25.2099 1.20165,22.0433 -0.5,18.5C -0.5,16.1667 -0.5,13.8333 -0.5,11.5C 1.35029,5.77464 5.01696,1.77464 10.5,-0.5 Z"/></g>
<g><path style="opacity:0.658" fill="#4c59e5" d="M 14.5,1.5 C 15.1667,1.5 15.8333,1.5 16.5,1.5C 15.8333,5.5 15.1667,5.5 14.5,1.5 Z"/></g>
<g><path style="opacity:0.615" fill="#4a5ae6" d="M 2.5,13.5 C 3.67504,13.281 4.67504,13.6143 5.5,14.5C 3.94835,15.7979 2.94835,15.4646 2.5,13.5 Z"/></g>
<g><path style="opacity:0.619" fill="#4b59e6" d="M 28.5,13.5 C 28.5,13.8333 28.5,14.1667 28.5,14.5C 28.5,14.8333 28.5,15.1667 28.5,15.5C 24.5,14.8333 24.5,14.1667 28.5,13.5 Z"/></g>
</svg>
