<?xml version="1.0" encoding="UTF-8"?>
<!DOCTYPE svg PUBLIC "-//W3C//DTD SVG 1.1//EN" "http://www.w3.org/Graphics/SVG/1.1/DTD/svg11.dtd">
<svg xmlns="http://www.w3.org/2000/svg" version="1.1" width="32px" height="32px" style="shape-rendering:geometricPrecision; text-rendering:geometricPrecision; image-rendering:optimizeQuality; fill-rule:evenodd; clip-rule:evenodd" xmlns:xlink="http://www.w3.org/1999/xlink">
<g><path style="opacity:0.622" fill="#2d2d41" d="M 31.5,2.5 C 31.5,3.83333 31.5,5.16667 31.5,6.5C 27.0648,8.0161 25.3982,11.1828 26.5,16C 26.7708,19.098 27.4375,22.098 28.5,25C 28.4148,26.1074 28.0814,27.1074 27.5,28C 18.1726,28.4998 8.83928,28.6665 -0.5,28.5C -0.5,26.5 -0.5,24.5 -0.5,22.5C 1.45334,16.9262 2.12,10.9262 1.5,4.5C 10.27,3.88173 18.77,4.5484 27,6.5C 27.1118,3.55291 28.6118,2.21958 31.5,2.5 Z M 5.5,8.5 C 11.2055,8.17124 16.8722,8.50457 22.5,9.5C 21.5197,10.9814 20.353,12.3147 19,13.5C 17.8455,12.2567 16.5122,11.2567 15,10.5C 13.3333,12.1667 11.6667,13.8333 10,15.5C 8.95101,13.8934 7.45101,13.2267 5.5,13.5C 5.5,11.8333 5.5,10.1667 5.5,8.5 Z M 14.5,14.5 C 14.56,13.9569 14.8933,13.6236 15.5,13.5C 17.713,16.0801 19.8797,16.0801 22,13.5C 22.1667,14.5 22.3333,15.5 22.5,16.5C 22.3601,18.0296 21.6935,19.0296 20.5,19.5C 19.8333,15.5 19.1667,15.5 18.5,19.5C 17.5,19.5 16.5,19.5 15.5,19.5C 15.7845,17.5853 15.4511,15.9187 14.5,14.5 Z M 13.5,15.5 C 13.5,16.8333 13.5,18.1667 13.5,19.5C 12.8333,19.5 12.1667,19.5 11.5,19.5C 11.5,18.8333 11.5,18.1667 11.5,17.5C 11.8333,16.5 12.5,15.8333 13.5,15.5 Z M 9.5,17.5 C 9.5,18.1667 9.5,18.8333 9.5,19.5C 9.16667,19.5 8.83333,19.5 8.5,19.5C 7.83333,16.8333 7.16667,16.8333 6.5,19.5C 5.59603,18.791 5.26269,17.791 5.5,16.5C 7.09903,16.2322 8.43236,16.5655 9.5,17.5 Z M 1.5,23.5 C 5.18343,23.0875 8.51676,23.9208 11.5,26C 8.18323,26.4983 4.8499,26.665 1.5,26.5C 1.5,25.5 1.5,24.5 1.5,23.5 Z M 18.5,23.5 C 21.1667,23.5 23.8333,23.5 26.5,23.5C 26.5,24.5 26.5,25.5 26.5,26.5C 23.1501,26.665 19.8168,26.4983 16.5,26C 17.3805,25.2917 18.0472,24.4584 18.5,23.5 Z"/></g>
<g><path style="opacity:0.556" fill="#4c58e6" d="M 14.5,14.5 C 15.4511,15.9187 15.7845,17.5853 15.5,19.5C 14.8333,19.5 14.1667,19.5 13.5,19.5C 13.5,18.1667 13.5,16.8333 13.5,15.5C 13.5,14.8333 13.8333,14.5 14.5,14.5 Z"/></g>
<g><path style="opacity:0.489" fill="#4c59e5" d="M 20.5,19.5 C 19.8333,19.5 19.1667,19.5 18.5,19.5C 19.1667,15.5 19.8333,15.5 20.5,19.5 Z"/></g>
<g><path style="opacity:0.4" fill="#4c58e6" d="M 8.5,19.5 C 7.83333,19.5 7.16667,19.5 6.5,19.5C 7.16667,16.8333 7.83333,16.8333 8.5,19.5 Z"/></g>
<g><path style="opacity:0.4" fill="#4b5ae6" d="M 9.5,17.5 C 10.1667,17.5 10.8333,17.5 11.5,17.5C 11.5,18.1667 11.5,18.8333 11.5,19.5C 10.8333,19.5 10.1667,19.5 9.5,19.5C 9.5,18.8333 9.5,18.1667 9.5,17.5 Z"/></g>
</svg>
